G04 #@! TF.FileFunction,Legend,Top*
%FSLAX46Y46*%
G04 Gerber Fmt 4.6, Leading zero omitted, Abs format (unit mm)*
G04 Created by KiCad (PCBNEW 4.0.4-stable) date 10/20/17 11:10:49*
%MOMM*%
%LPD*%
G01*
G04 APERTURE LIST*
%ADD10C,0.100000*%
%ADD11C,0.150000*%
%ADD12C,0.152400*%
G04 APERTURE END LIST*
D10*
D11*
X133640000Y-100610000D02*
X133640000Y-99610000D01*
X131940000Y-99610000D02*
X131940000Y-100610000D01*
X121950000Y-89980000D02*
X121950000Y-90980000D01*
X123650000Y-90980000D02*
X123650000Y-89980000D01*
X121885000Y-96080000D02*
X121885000Y-94880000D01*
X123635000Y-94880000D02*
X123635000Y-96080000D01*
X128550000Y-100495000D02*
X127350000Y-100495000D01*
X127350000Y-98745000D02*
X128550000Y-98745000D01*
X133800000Y-90490000D02*
X128400000Y-90490000D01*
X134200000Y-84490000D02*
X134200000Y-90090000D01*
X128400000Y-84090000D02*
X133800000Y-84090000D01*
X128000000Y-90090000D02*
X128000000Y-84490000D01*
X134200000Y-84490000D02*
X133800000Y-84090000D01*
X128000000Y-84490000D02*
X128400000Y-84090000D01*
X128400000Y-90490000D02*
X128000000Y-90090000D01*
X133800000Y-90490000D02*
X134200000Y-90090000D01*
X132950000Y-87290000D02*
G75*
G03X132950000Y-87290000I-1750000J0D01*
G01*
X134200000Y-87290000D02*
X134000000Y-87290000D01*
X131200000Y-84290000D02*
X131200000Y-84090000D01*
X128200000Y-87290000D02*
X128000000Y-87290000D01*
X131200000Y-90290000D02*
X131200000Y-90490000D01*
X139030000Y-93680000D02*
X139030000Y-90980000D01*
X137530000Y-93680000D02*
X137530000Y-90980000D01*
X138430000Y-92180000D02*
X138180000Y-92180000D01*
X138180000Y-92180000D02*
X138330000Y-92330000D01*
X137930000Y-92430000D02*
X138630000Y-92430000D01*
X138280000Y-92080000D02*
X138280000Y-91730000D01*
X138280000Y-92430000D02*
X137930000Y-92080000D01*
X137930000Y-92080000D02*
X138630000Y-92080000D01*
X138630000Y-92080000D02*
X138280000Y-92430000D01*
X137405000Y-97230000D02*
X137405000Y-96030000D01*
X139155000Y-96030000D02*
X139155000Y-97230000D01*
D12*
X133030900Y-91051100D02*
X128789100Y-91051100D01*
X128789100Y-96308900D02*
X133030900Y-96308900D01*
D11*
X130663334Y-98697143D02*
X130615715Y-98744762D01*
X130472858Y-98792381D01*
X130377620Y-98792381D01*
X130234762Y-98744762D01*
X130139524Y-98649524D01*
X130091905Y-98554286D01*
X130044286Y-98363810D01*
X130044286Y-98220952D01*
X130091905Y-98030476D01*
X130139524Y-97935238D01*
X130234762Y-97840000D01*
X130377620Y-97792381D01*
X130472858Y-97792381D01*
X130615715Y-97840000D01*
X130663334Y-97887619D01*
X131615715Y-98792381D02*
X131044286Y-98792381D01*
X131330000Y-98792381D02*
X131330000Y-97792381D01*
X131234762Y-97935238D01*
X131139524Y-98030476D01*
X131044286Y-98078095D01*
X124483334Y-92387143D02*
X124435715Y-92434762D01*
X124292858Y-92482381D01*
X124197620Y-92482381D01*
X124054762Y-92434762D01*
X123959524Y-92339524D01*
X123911905Y-92244286D01*
X123864286Y-92053810D01*
X123864286Y-91910952D01*
X123911905Y-91720476D01*
X123959524Y-91625238D01*
X124054762Y-91530000D01*
X124197620Y-91482381D01*
X124292858Y-91482381D01*
X124435715Y-91530000D01*
X124483334Y-91577619D01*
X124864286Y-91577619D02*
X124911905Y-91530000D01*
X125007143Y-91482381D01*
X125245239Y-91482381D01*
X125340477Y-91530000D01*
X125388096Y-91577619D01*
X125435715Y-91672857D01*
X125435715Y-91768095D01*
X125388096Y-91910952D01*
X124816667Y-92482381D01*
X125435715Y-92482381D01*
X124593334Y-94462381D02*
X124260000Y-93986190D01*
X124021905Y-94462381D02*
X124021905Y-93462381D01*
X124402858Y-93462381D01*
X124498096Y-93510000D01*
X124545715Y-93557619D01*
X124593334Y-93652857D01*
X124593334Y-93795714D01*
X124545715Y-93890952D01*
X124498096Y-93938571D01*
X124402858Y-93986190D01*
X124021905Y-93986190D01*
X125545715Y-94462381D02*
X124974286Y-94462381D01*
X125260000Y-94462381D02*
X125260000Y-93462381D01*
X125164762Y-93605238D01*
X125069524Y-93700476D01*
X124974286Y-93748095D01*
X127724286Y-100912381D02*
X128295715Y-100912381D01*
X128010000Y-101912381D02*
X128010000Y-100912381D01*
X128629048Y-101912381D02*
X128629048Y-100912381D01*
X128629048Y-101388571D02*
X129200477Y-101388571D01*
X129200477Y-101912381D02*
X129200477Y-100912381D01*
X130200477Y-101912381D02*
X129629048Y-101912381D01*
X129914762Y-101912381D02*
X129914762Y-100912381D01*
X129819524Y-101055238D01*
X129724286Y-101150476D01*
X129629048Y-101198095D01*
X135361905Y-91852381D02*
X135361905Y-90852381D01*
X135600000Y-90852381D01*
X135742858Y-90900000D01*
X135838096Y-90995238D01*
X135885715Y-91090476D01*
X135933334Y-91280952D01*
X135933334Y-91423810D01*
X135885715Y-91614286D01*
X135838096Y-91709524D01*
X135742858Y-91804762D01*
X135600000Y-91852381D01*
X135361905Y-91852381D01*
X136314286Y-90947619D02*
X136361905Y-90900000D01*
X136457143Y-90852381D01*
X136695239Y-90852381D01*
X136790477Y-90900000D01*
X136838096Y-90947619D01*
X136885715Y-91042857D01*
X136885715Y-91138095D01*
X136838096Y-91280952D01*
X136266667Y-91852381D01*
X136885715Y-91852381D01*
X136003334Y-98852381D02*
X135670000Y-98376190D01*
X135431905Y-98852381D02*
X135431905Y-97852381D01*
X135812858Y-97852381D01*
X135908096Y-97900000D01*
X135955715Y-97947619D01*
X136003334Y-98042857D01*
X136003334Y-98185714D01*
X135955715Y-98280952D01*
X135908096Y-98328571D01*
X135812858Y-98376190D01*
X135431905Y-98376190D01*
X136860477Y-98185714D02*
X136860477Y-98852381D01*
X136622381Y-97804762D02*
X136384286Y-98519048D01*
X137003334Y-98519048D01*
X130218095Y-94652381D02*
X130218095Y-95461905D01*
X130265714Y-95557143D01*
X130313333Y-95604762D01*
X130408571Y-95652381D01*
X130599048Y-95652381D01*
X130694286Y-95604762D01*
X130741905Y-95557143D01*
X130789524Y-95461905D01*
X130789524Y-94652381D01*
X131789524Y-95652381D02*
X131218095Y-95652381D01*
X131503809Y-95652381D02*
X131503809Y-94652381D01*
X131408571Y-94795238D01*
X131313333Y-94890476D01*
X131218095Y-94938095D01*
X128789524Y-97462381D02*
X128313333Y-97462381D01*
X128313333Y-96462381D01*
X129122857Y-97462381D02*
X129122857Y-96462381D01*
X129456191Y-97176667D01*
X129789524Y-96462381D01*
X129789524Y-97462381D01*
X130837143Y-97367143D02*
X130789524Y-97414762D01*
X130646667Y-97462381D01*
X130551429Y-97462381D01*
X130408571Y-97414762D01*
X130313333Y-97319524D01*
X130265714Y-97224286D01*
X130218095Y-97033810D01*
X130218095Y-96890952D01*
X130265714Y-96700476D01*
X130313333Y-96605238D01*
X130408571Y-96510000D01*
X130551429Y-96462381D01*
X130646667Y-96462381D01*
X130789524Y-96510000D01*
X130837143Y-96557619D01*
X131741905Y-96462381D02*
X131265714Y-96462381D01*
X131218095Y-96938571D01*
X131265714Y-96890952D01*
X131360952Y-96843333D01*
X131599048Y-96843333D01*
X131694286Y-96890952D01*
X131741905Y-96938571D01*
X131789524Y-97033810D01*
X131789524Y-97271905D01*
X131741905Y-97367143D01*
X131694286Y-97414762D01*
X131599048Y-97462381D01*
X131360952Y-97462381D01*
X131265714Y-97414762D01*
X131218095Y-97367143D01*
X132694286Y-96462381D02*
X132218095Y-96462381D01*
X132170476Y-96938571D01*
X132218095Y-96890952D01*
X132313333Y-96843333D01*
X132551429Y-96843333D01*
X132646667Y-96890952D01*
X132694286Y-96938571D01*
X132741905Y-97033810D01*
X132741905Y-97271905D01*
X132694286Y-97367143D01*
X132646667Y-97414762D01*
X132551429Y-97462381D01*
X132313333Y-97462381D01*
X132218095Y-97414762D01*
X132170476Y-97367143D01*
X133646667Y-96462381D02*
X133170476Y-96462381D01*
X133122857Y-96938571D01*
X133170476Y-96890952D01*
X133265714Y-96843333D01*
X133503810Y-96843333D01*
X133599048Y-96890952D01*
X133646667Y-96938571D01*
X133694286Y-97033810D01*
X133694286Y-97271905D01*
X133646667Y-97367143D01*
X133599048Y-97414762D01*
X133503810Y-97462381D01*
X133265714Y-97462381D01*
X133170476Y-97414762D01*
X133122857Y-97367143D01*
M02*
